<?xml version="1.0" encoding="UTF-8"?>
<!-- Generator: Adobe Illustrator 16.0.0, SVG Export Plug-In . SVG Version: 6.00 Build 0)  -->
<!DOCTYPE svg PUBLIC "-//W3C//DTD SVG 1.1//EN" "http://www.w3.org/Graphics/SVG/1.1/DTD/svg11.dtd">
<svg version="1.1" id="Laag_1" xmlns="http://www.w3.org/2000/svg" xmlns:xlink="http://www.w3.org/1999/xlink" x="0px" y="0px" width="737.01px" height="300.16px" viewBox="0 0 737.01 340.16" enable-background="new 0 0 737.01 340.16" xml:space="preserve">
<g>
	<path fill="#CC003D" d="M152.694,286.838c0.25-0.719,0.586-1.039,1.008-0.961s0.773,0.305,1.055,0.68l3.75,23.812   c0.375-0.375,0.719-1.141,1.031-2.297c0.312-1.156,0.633-2.477,0.961-3.961s0.695-3.031,1.102-4.641   c0.406-1.609,0.921-3.078,1.547-4.406c0.625-1.328,1.367-2.398,2.227-3.211c0.859-0.812,1.914-1.172,3.164-1.078   c0.812,0,1.539,0.383,2.18,1.148c0.64,0.766,1.219,1.758,1.734,2.977s1.008,2.578,1.477,4.078s0.938,2.984,1.406,4.453   s0.968,2.836,1.5,4.102c0.531,1.266,1.141,2.273,1.828,3.023c0.062-0.781,0.18-2.062,0.352-3.844   c0.171-1.781,0.429-3.766,0.773-5.953c0.344-2.188,0.789-4.414,1.336-6.68c0.546-2.266,1.226-4.289,2.039-6.07   c1-2.156,1.914-3.57,2.742-4.242c0.828-0.672,1.664-0.68,2.508-0.023c-1.219,1.031-2.211,2.469-2.977,4.312   c-0.766,1.844-1.399,3.867-1.898,6.07c-0.5,2.203-0.891,4.469-1.172,6.797s-0.555,4.516-0.82,6.562   c-0.266,2.047-0.555,3.828-0.867,5.344c-0.312,1.516-0.734,2.555-1.266,3.117c-0.938-0.969-1.797-2.203-2.578-3.703   c-0.781-1.5-1.5-3.094-2.156-4.781s-1.266-3.383-1.828-5.086s-1.086-3.234-1.57-4.594c-0.485-1.359-0.945-2.469-1.383-3.328   c-0.438-0.859-0.86-1.289-1.266-1.289c-0.969-0.094-1.742,0.227-2.32,0.961c-0.579,0.734-1.071,1.719-1.477,2.953   c-0.406,1.234-0.758,2.648-1.055,4.242c-0.297,1.594-0.649,3.234-1.055,4.922c-0.406,1.688-0.898,3.352-1.477,4.992   c-0.579,1.641-1.352,3.102-2.32,4.383c-0.344,0-0.688-0.391-1.031-1.172c-0.344-0.781-0.696-1.82-1.055-3.117   c-0.359-1.297-0.711-2.773-1.055-4.43c-0.344-1.656-0.664-3.359-0.961-5.109c-0.297-1.75-0.579-3.484-0.844-5.203   c-0.266-1.719-0.492-3.266-0.68-4.641s-0.336-2.523-0.445-3.445C152.748,287.58,152.694,287.025,152.694,286.838z"/>
	<path fill="#CC003D" d="M190.65,315.619c-1.062-0.031-1.883-0.445-2.461-1.242c-0.579-0.797-0.977-1.836-1.195-3.117   c-0.219-1.281-0.258-2.75-0.117-4.406s0.414-3.359,0.82-5.109c0.406-1.75,0.93-3.484,1.57-5.203   c0.64-1.719,1.352-3.289,2.133-4.711c0.781-1.422,1.625-2.641,2.531-3.656c0.906-1.016,1.828-1.68,2.766-1.992   c0.781,0,1.445,0.148,1.992,0.445c0.546,0.297,1.008,0.695,1.383,1.195s0.68,1.062,0.914,1.688s0.429,1.266,0.586,1.922   c0.031-0.281,0.133-0.703,0.305-1.266c0.171-0.562,0.375-1.07,0.609-1.523s0.484-0.758,0.75-0.914   c0.265-0.156,0.523,0.016,0.773,0.516c-0.406,3.281-0.688,6.109-0.844,8.484c-0.157,2.375-0.219,4.391-0.188,6.047   c0.031,1.656,0.156,3,0.375,4.031c0.218,1.031,0.516,1.844,0.891,2.438s0.812,1.031,1.312,1.312c0.5,0.281,1.047,0.5,1.641,0.656   c0.844,0.156,1.57,0.086,2.18-0.211s1.148-0.695,1.617-1.195s0.883-1.016,1.242-1.547c0.359-0.531,0.71-0.953,1.055-1.266   c0.218,0.656,0.203,1.359-0.047,2.109c-0.25,0.75-0.649,1.445-1.195,2.086c-0.547,0.641-1.219,1.156-2.016,1.547   s-1.633,0.57-2.508,0.539c-1.344,0-2.445-0.359-3.305-1.078c-0.86-0.719-1.547-1.625-2.062-2.719s-0.883-2.266-1.102-3.516   c-0.219-1.25-0.359-2.422-0.422-3.516c-0.344,0.906-0.797,2.102-1.359,3.586s-1.242,2.938-2.039,4.359s-1.742,2.648-2.836,3.68   C193.306,315.104,192.057,315.619,190.65,315.619z M196.791,288.244c-0.469,0.031-0.992,0.383-1.57,1.055   c-0.579,0.672-1.18,1.562-1.805,2.672c-0.625,1.109-1.227,2.367-1.805,3.773c-0.579,1.406-1.094,2.859-1.547,4.359   c-0.453,1.5-0.813,2.992-1.078,4.477c-0.266,1.484-0.383,2.836-0.352,4.055c0.031,1.219,0.234,2.25,0.609,3.094   s0.968,1.391,1.781,1.641c0.562,0.125,1.172-0.078,1.828-0.609s1.305-1.266,1.945-2.203c0.64-0.938,1.258-2.047,1.852-3.328   c0.593-1.281,1.148-2.609,1.664-3.984s0.953-2.742,1.312-4.102c0.359-1.359,0.633-2.617,0.82-3.773c0-0.562-0.063-1.25-0.188-2.062   c-0.125-0.812-0.328-1.594-0.609-2.344s-0.656-1.391-1.125-1.922S197.478,288.244,196.791,288.244z"/>
	<path fill="#CC003D" d="M216.265,301.697c-0.031-0.625,0.023-1.453,0.164-2.484s0.367-2.133,0.68-3.305   c0.312-1.172,0.71-2.344,1.195-3.516c0.484-1.172,1.047-2.227,1.688-3.164c0.64-0.938,1.352-1.688,2.133-2.25   c0.781-0.562,1.641-0.812,2.578-0.75c1.094,0,2,0.352,2.719,1.055c0.719,0.703,1.289,1.547,1.711,2.531s0.734,2.008,0.938,3.07   c0.203,1.062,0.352,1.938,0.445,2.625c0.094,0.438,0.156,1.156,0.188,2.156c0.031,1,0.062,2.133,0.094,3.398   c0.031,1.266,0.07,2.594,0.117,3.984s0.109,2.703,0.188,3.938c0.078,1.234,0.18,2.312,0.305,3.234   c0.125,0.922,0.297,1.555,0.516,1.898c0.031,0.281-0.094,0.555-0.375,0.82s-0.609,0.469-0.984,0.609s-0.734,0.171-1.078,0.094   c-0.344-0.078-0.562-0.336-0.656-0.773c-0.344-1.406-0.562-3.047-0.656-4.922s-0.157-3.805-0.188-5.789   c-0.031-1.984-0.055-3.922-0.07-5.812c-0.016-1.891-0.117-3.578-0.305-5.062s-0.508-2.656-0.961-3.516   c-0.453-0.859-1.102-1.242-1.945-1.148c-0.938,0.062-1.774,0.5-2.508,1.312c-0.734,0.812-1.383,1.867-1.945,3.164   s-1.039,2.766-1.43,4.406c-0.391,1.641-0.727,3.312-1.008,5.016s-0.516,3.352-0.703,4.945s-0.336,3-0.445,4.219   c-0.11,1.219-0.204,2.164-0.281,2.836c-0.078,0.672-0.148,0.945-0.211,0.82c-0.094,0-0.266,0.008-0.516,0.023   c-0.25,0.016-0.5,0.016-0.75,0c-0.25-0.016-0.469-0.062-0.656-0.141s-0.281-0.227-0.281-0.445v-23.062   c0-0.719,0.18-1.383,0.539-1.992c0.359-0.609,0.945-0.914,1.758-0.914V301.697z"/>
	<path fill="#CC003D" d="M236.327,291.971c-0.734,0.172-1.508,0.336-2.32,0.492c-0.125,0-0.258-0.141-0.398-0.422   s-0.273-0.828-0.398-1.641c0.406-0.125,0.852-0.227,1.336-0.305s0.977-0.18,1.477-0.305c0.5-0.125,0.977-0.273,1.43-0.445   c0.453-0.172,0.836-0.414,1.148-0.727v-7.078c0-0.156,0.054-0.344,0.164-0.562c0.109-0.219,0.265-0.414,0.469-0.586   c0.203-0.172,0.445-0.305,0.727-0.398s0.593-0.094,0.938,0l0.094,8.25l11.766-2.25c0,0.344-0.086,0.656-0.258,0.938   c-0.172,0.281-0.383,0.531-0.633,0.75c-0.25,0.219-0.516,0.398-0.797,0.539s-0.532,0.242-0.75,0.305   c-0.656,0.188-1.422,0.375-2.297,0.562c-0.875,0.188-1.758,0.375-2.648,0.562s-1.734,0.391-2.531,0.609s-1.446,0.438-1.945,0.656   v23.859c0,0.219-0.11,0.391-0.328,0.516c-0.219,0.125-0.461,0.227-0.727,0.305c-0.266,0.077-0.523,0.124-0.773,0.141   c-0.25,0.016-0.406,0.023-0.469,0.023v-24.047C237.819,291.713,237.061,291.799,236.327,291.971z"/>
	<path fill="#CC003D" d="M273.378,333.432c-0.375-0.281-0.594-0.617-0.656-1.008c-0.063-0.392-0.023-0.734,0.117-1.031   c0.141-0.298,0.359-0.5,0.656-0.609c0.297-0.11,0.586-0.04,0.867,0.211c1.437,0.874,2.766,1.289,3.984,1.242   s2.312-0.398,3.281-1.055c0.968-0.656,1.805-1.547,2.508-2.672s1.273-2.36,1.711-3.703c0.438-1.344,0.75-2.719,0.938-4.125   s0.234-2.719,0.141-3.938l-1.781-22.312c-1.406,3.844-2.758,7.055-4.055,9.633c-1.297,2.578-2.516,4.672-3.656,6.281   c-1.141,1.609-2.203,2.797-3.188,3.562s-1.868,1.266-2.648,1.5c-0.781,0.234-1.461,0.265-2.039,0.094   c-0.579-0.172-1.024-0.414-1.336-0.727c-0.406-0.906-0.625-2.117-0.656-3.633c-0.031-1.516,0.086-3.164,0.352-4.945   c0.265-1.781,0.68-3.633,1.242-5.555s1.219-3.758,1.969-5.508s1.601-3.32,2.555-4.711c0.953-1.391,1.976-2.453,3.07-3.188   c1.094-0.734,2.227-1.062,3.398-0.984s2.367,0.711,3.586,1.898c0-0.562,0.109-1.008,0.328-1.336   c0.218-0.328,0.492-0.523,0.82-0.586s0.656-0.023,0.984,0.117s0.617,0.398,0.867,0.773l2.625,29.344   c0.062,0.75,0.054,1.805-0.023,3.164c-0.078,1.359-0.289,2.812-0.633,4.359c-0.344,1.547-0.867,3.07-1.57,4.57   s-1.664,2.749-2.883,3.75c-1.219,1-2.711,1.656-4.477,1.969C278.011,334.587,275.878,334.306,273.378,333.432z M279.332,288.525   c-0.844,0.188-1.711,0.828-2.602,1.922s-1.742,2.445-2.555,4.055c-0.813,1.609-1.547,3.367-2.203,5.273s-1.165,3.742-1.523,5.508   c-0.359,1.766-0.555,3.367-0.586,4.805c-0.031,1.438,0.188,2.484,0.656,3.141c0.531,0.125,1.211-0.164,2.039-0.867   c0.828-0.703,1.703-1.672,2.625-2.906c0.921-1.234,1.844-2.641,2.766-4.219c0.921-1.578,1.75-3.172,2.484-4.781   c0.734-1.609,1.328-3.156,1.781-4.641c0.453-1.484,0.68-2.742,0.68-3.773c0-0.469-0.11-0.914-0.328-1.336   c-0.219-0.422-0.492-0.797-0.82-1.125s-0.711-0.586-1.148-0.773C280.159,288.619,279.737,288.525,279.332,288.525z"/>
	<path fill="#CC003D" d="M292.056,309.619c0-1.062,0.141-2.438,0.422-4.125s0.68-3.461,1.195-5.32s1.141-3.711,1.875-5.555   c0.734-1.844,1.547-3.461,2.438-4.852s1.852-2.445,2.883-3.164s2.125-0.891,3.281-0.516c0.218-0.031,0.539,0.164,0.961,0.586   s0.757,1.078,1.008,1.969c0.25,0.891,0.328,2.016,0.234,3.375s-0.523,2.984-1.289,4.875c-0.766,1.891-1.953,4.039-3.562,6.445   c-1.61,2.406-3.82,5.094-6.633,8.062c0.562,0.875,1.234,1.391,2.016,1.547c0.781,0.156,1.609,0.078,2.484-0.234   c0.875-0.312,1.75-0.805,2.625-1.477c0.875-0.672,1.688-1.383,2.438-2.133s1.398-1.492,1.945-2.227   c0.546-0.734,0.93-1.32,1.148-1.758c0.531,0.469,0.734,1.055,0.609,1.758c-0.125,0.703-0.461,1.445-1.008,2.227   c-0.547,0.781-1.25,1.555-2.109,2.32c-0.86,0.766-1.758,1.445-2.695,2.039s-1.859,1.07-2.766,1.43   c-0.907,0.359-1.672,0.508-2.297,0.445c-0.656,0-1.297-0.164-1.922-0.492c-0.625-0.328-1.18-0.758-1.664-1.289   c-0.485-0.531-0.875-1.141-1.172-1.828C292.204,311.041,292.056,310.338,292.056,309.619z M302.837,288.713   c-0.656,0-1.336,0.414-2.039,1.242s-1.383,1.875-2.039,3.141s-1.273,2.656-1.852,4.172c-0.579,1.516-1.071,2.984-1.477,4.406   c-0.406,1.422-0.703,2.688-0.891,3.797s-0.234,1.898-0.141,2.367c0.5,0.031,1.164-0.391,1.992-1.266   c0.828-0.875,1.68-1.992,2.555-3.352c0.875-1.359,1.703-2.844,2.484-4.453c0.781-1.609,1.398-3.133,1.852-4.57   c0.453-1.438,0.672-2.664,0.656-3.68C303.923,289.502,303.556,288.9,302.837,288.713z"/>
	<path fill="#CC003D" d="M310.969,286.557c0.438,0,0.812,0.055,1.125,0.164c0.312,0.109,0.562,0.367,0.75,0.773   c0.5,1.531,1.023,3.391,1.57,5.578c0.546,2.188,1.132,4.422,1.758,6.703c0.625,2.281,1.296,4.477,2.016,6.586   c0.719,2.109,1.5,3.852,2.344,5.227c0.469-1.438,0.945-3.102,1.43-4.992c0.484-1.891,1-3.836,1.547-5.836   c0.546-2,1.148-3.977,1.805-5.93s1.383-3.719,2.18-5.297s1.695-2.891,2.695-3.938c1-1.047,2.14-1.648,3.422-1.805   c-0.281,0.625-0.633,1.242-1.055,1.852s-0.907,1.367-1.453,2.273c-0.547,0.906-1.148,2.031-1.805,3.375s-1.367,3.078-2.133,5.203   c-0.766,2.125-1.586,4.719-2.461,7.781c-0.875,3.062-1.797,6.75-2.766,11.062c-0.219,0.25-0.445,0.367-0.68,0.352   c-0.234-0.017-0.523-0.07-0.867-0.164c-0.75-0.844-1.5-2-2.25-3.469s-1.477-3.102-2.18-4.898s-1.359-3.672-1.969-5.625   s-1.133-3.859-1.57-5.719c-0.438-1.859-0.79-3.594-1.055-5.203C311.102,289.002,310.969,287.65,310.969,286.557z"/>
	<path fill="#CC003D" d="M331.811,309.619c0-1.062,0.141-2.438,0.422-4.125s0.68-3.461,1.195-5.32s1.141-3.711,1.875-5.555   s1.547-3.461,2.438-4.852s1.852-2.445,2.883-3.164s2.125-0.891,3.281-0.516c0.219-0.031,0.539,0.164,0.961,0.586   s0.758,1.078,1.008,1.969s0.328,2.016,0.234,3.375s-0.523,2.984-1.289,4.875s-1.953,4.039-3.562,6.445s-3.82,5.094-6.633,8.062   c0.562,0.875,1.234,1.391,2.016,1.547s1.609,0.078,2.484-0.234s1.75-0.805,2.625-1.477s1.688-1.383,2.438-2.133   s1.398-1.492,1.945-2.227s0.93-1.32,1.148-1.758c0.531,0.469,0.734,1.055,0.609,1.758s-0.461,1.445-1.008,2.227   s-1.25,1.555-2.109,2.32s-1.758,1.445-2.695,2.039s-1.859,1.07-2.766,1.43s-1.672,0.508-2.297,0.445   c-0.656,0-1.297-0.164-1.922-0.492c-0.626-0.328-1.18-0.758-1.665-1.289c-0.485-0.531-0.875-1.141-1.172-1.828   C331.958,311.041,331.811,310.338,331.811,309.619z M342.592,288.713c-0.656,0-1.336,0.414-2.039,1.242s-1.383,1.875-2.039,3.141   s-1.273,2.656-1.852,4.172s-1.07,2.984-1.477,4.406s-0.703,2.688-0.891,3.797c-0.188,1.109-0.234,1.898-0.141,2.367   c0.5,0.031,1.165-0.391,1.993-1.266s1.68-1.992,2.555-3.352s1.703-2.844,2.484-4.453s1.398-3.133,1.852-4.57   s0.672-2.664,0.656-3.68S343.311,288.9,342.592,288.713z"/>
	<path fill="#CC003D" d="M354.004,301.697c-0.031-0.625,0.023-1.453,0.164-2.484s0.367-2.133,0.68-3.305s0.711-2.344,1.195-3.516   s1.047-2.227,1.688-3.164s1.352-1.688,2.133-2.25s1.641-0.812,2.578-0.75c1.094,0,2,0.352,2.719,1.055s1.289,1.547,1.711,2.531   s0.734,2.008,0.938,3.07s0.352,1.938,0.445,2.625c0.094,0.438,0.156,1.156,0.188,2.156s0.062,2.133,0.094,3.398   s0.07,2.594,0.117,3.984s0.109,2.703,0.188,3.938s0.18,2.312,0.305,3.234s0.297,1.555,0.516,1.898   c0.031,0.281-0.094,0.555-0.375,0.82s-0.609,0.469-0.984,0.609s-0.734,0.171-1.078,0.094c-0.344-0.078-0.562-0.336-0.656-0.773   c-0.344-1.406-0.562-3.047-0.656-4.922s-0.156-3.805-0.188-5.789s-0.055-3.922-0.07-5.812s-0.117-3.578-0.305-5.062   s-0.508-2.656-0.961-3.516s-1.102-1.242-1.945-1.148c-0.938,0.062-1.773,0.5-2.508,1.312s-1.383,1.867-1.945,3.164   s-1.039,2.766-1.43,4.406s-0.727,3.312-1.008,5.016s-0.516,3.352-0.703,4.945s-0.336,3-0.445,4.219s-0.203,2.164-0.281,2.836   s-0.148,0.945-0.211,0.82c-0.094,0-0.266,0.008-0.516,0.023s-0.5,0.016-0.75,0s-0.469-0.062-0.656-0.141s-0.281-0.227-0.281-0.445   v-23.062c0-0.719,0.18-1.383,0.539-1.992s0.945-0.914,1.758-0.914V301.697z"/>
	<path fill="#CC003D" d="M415.455,289.604c-0.938-0.312-1.758-0.172-2.461,0.422s-1.328,1.492-1.875,2.695s-1.031,2.648-1.453,4.336   s-0.82,3.461-1.195,5.32s-0.766,3.727-1.172,5.602s-0.844,3.625-1.312,5.25c0,0.25-0.125,0.422-0.375,0.516   s-0.516,0.133-0.797,0.117s-0.539-0.078-0.773-0.188s-0.367-0.258-0.398-0.445c-0.25-1.375-0.445-2.914-0.586-4.617   s-0.281-3.438-0.422-5.203s-0.281-3.5-0.422-5.203s-0.328-3.25-0.562-4.641s-0.523-2.547-0.867-3.469s-0.766-1.492-1.266-1.711   c-0.5,0-0.953,0.234-1.359,0.703s-0.789,1.078-1.148,1.828s-0.672,1.578-0.938,2.484s-0.5,1.797-0.703,2.672   s-0.375,1.672-0.516,2.391s-0.227,1.25-0.258,1.594c-0.062,0.281-0.141,0.797-0.234,1.547s-0.211,1.609-0.352,2.578   s-0.273,2-0.398,3.094s-0.25,2.133-0.375,3.117s-0.227,1.859-0.305,2.625s-0.133,1.289-0.164,1.57   c0.062,0.312-0.008,0.578-0.211,0.797c-0.203,0.218-0.445,0.375-0.727,0.469s-0.562,0.101-0.844,0.023   c-0.281-0.078-0.453-0.258-0.516-0.539c-0.219-1.562-0.398-3.281-0.539-5.156s-0.266-3.797-0.375-5.766s-0.203-3.906-0.281-5.812   s-0.133-3.656-0.164-5.25c0-0.375,0.016-0.781,0.047-1.219s0.117-0.844,0.258-1.219s0.367-0.688,0.68-0.938   s0.734-0.375,1.266-0.375c0,1.969,0.07,3.836,0.211,5.602s0.383,3.633,0.727,5.602c0.125-0.594,0.273-1.375,0.445-2.344   s0.398-2,0.68-3.094s0.609-2.195,0.984-3.305s0.82-2.102,1.336-2.977s1.117-1.594,1.805-2.156s1.484-0.844,2.391-0.844   c0.844,0.062,1.547,0.477,2.109,1.242s1.016,1.734,1.359,2.906s0.609,2.484,0.797,3.938s0.336,2.922,0.445,4.406   s0.195,2.898,0.258,4.242s0.156,2.5,0.281,3.469c0.438-1.531,0.844-3.102,1.219-4.711s0.766-3.156,1.172-4.641   s0.852-2.875,1.336-4.172s1.047-2.398,1.688-3.305s1.383-1.586,2.227-2.039s1.828-0.586,2.953-0.398   c0.781,0.031,1.461,0.43,2.039,1.195s1.078,1.766,1.5,3s0.773,2.648,1.055,4.242s0.5,3.227,0.656,4.898s0.273,3.336,0.352,4.992   s0.117,3.164,0.117,4.523s-0.023,2.516-0.07,3.469s-0.102,1.586-0.164,1.898c-0.531,0.625-0.953,0.766-1.266,0.422   s-0.547-1.016-0.703-2.016s-0.273-2.25-0.352-3.75s-0.148-3.086-0.211-4.758s-0.141-3.367-0.234-5.086s-0.258-3.305-0.492-4.758   s-0.555-2.695-0.961-3.727S416.111,289.885,415.455,289.604z"/>
	<path fill="#CC003D" d="M427.805,315.619c-1.062-0.031-1.883-0.445-2.461-1.242s-0.977-1.836-1.195-3.117s-0.258-2.75-0.117-4.406   s0.414-3.359,0.82-5.109s0.93-3.484,1.57-5.203s1.352-3.289,2.133-4.711s1.625-2.641,2.531-3.656s1.828-1.68,2.766-1.992   c0.781,0,1.445,0.148,1.992,0.445s1.008,0.695,1.383,1.195s0.68,1.062,0.914,1.688s0.43,1.266,0.586,1.922   c0.031-0.281,0.133-0.703,0.305-1.266s0.375-1.07,0.609-1.523s0.484-0.758,0.75-0.914s0.523,0.016,0.773,0.516   c-0.406,3.281-0.688,6.109-0.844,8.484s-0.219,4.391-0.188,6.047s0.156,3,0.375,4.031s0.516,1.844,0.891,2.438   s0.812,1.031,1.312,1.312s1.047,0.5,1.641,0.656c0.844,0.156,1.57,0.086,2.18-0.211s1.148-0.695,1.617-1.195   s0.883-1.016,1.242-1.547s0.711-0.953,1.055-1.266c0.219,0.656,0.203,1.359-0.047,2.109s-0.648,1.445-1.195,2.086   s-1.219,1.156-2.016,1.547s-1.633,0.57-2.508,0.539c-1.344,0-2.445-0.359-3.305-1.078s-1.547-1.625-2.062-2.719   s-0.883-2.266-1.102-3.516s-0.359-2.422-0.422-3.516c-0.344,0.906-0.797,2.102-1.359,3.586s-1.242,2.938-2.039,4.359   s-1.742,2.648-2.836,3.68S429.211,315.619,427.805,315.619z M433.945,288.244c-0.469,0.031-0.992,0.383-1.57,1.055   s-1.18,1.562-1.805,2.672s-1.227,2.367-1.805,3.773s-1.094,2.859-1.547,4.359s-0.812,2.992-1.078,4.477s-0.383,2.836-0.352,4.055   s0.234,2.25,0.609,3.094s0.969,1.391,1.781,1.641c0.562,0.125,1.172-0.078,1.828-0.609s1.305-1.266,1.945-2.203   s1.258-2.047,1.852-3.328s1.148-2.609,1.664-3.984s0.953-2.742,1.312-4.102s0.633-2.617,0.82-3.773c0-0.562-0.062-1.25-0.188-2.062   s-0.328-1.594-0.609-2.344s-0.656-1.391-1.125-1.922S434.633,288.244,433.945,288.244z"/>
	<path fill="#CC003D" d="M454.217,315.619c-1.062-0.031-1.883-0.445-2.461-1.242s-0.977-1.836-1.195-3.117s-0.258-2.75-0.117-4.406   s0.414-3.359,0.82-5.109s0.93-3.484,1.57-5.203s1.352-3.289,2.133-4.711s1.625-2.641,2.531-3.656s1.828-1.68,2.766-1.992   c0.781,0,1.445,0.148,1.992,0.445s1.008,0.695,1.383,1.195s0.68,1.062,0.914,1.688s0.43,1.266,0.586,1.922   c0.031-0.281,0.133-0.703,0.305-1.266s0.375-1.07,0.609-1.523s0.484-0.758,0.75-0.914s0.523,0.016,0.773,0.516   c-0.406,3.281-0.688,6.109-0.844,8.484s-0.219,4.391-0.188,6.047s0.156,3,0.375,4.031s0.516,1.844,0.891,2.438   s0.812,1.031,1.312,1.312s1.047,0.5,1.641,0.656c0.844,0.156,1.57,0.086,2.18-0.211s1.148-0.695,1.617-1.195   s0.883-1.016,1.242-1.547s0.711-0.953,1.055-1.266c0.219,0.656,0.203,1.359-0.047,2.109s-0.648,1.445-1.195,2.086   s-1.219,1.156-2.016,1.547s-1.633,0.57-2.508,0.539c-1.344,0-2.445-0.359-3.305-1.078s-1.547-1.625-2.062-2.719   s-0.883-2.266-1.102-3.516s-0.359-2.422-0.422-3.516c-0.344,0.906-0.797,2.102-1.359,3.586s-1.242,2.938-2.039,4.359   s-1.742,2.648-2.836,3.68S455.623,315.619,454.217,315.619z M460.357,288.244c-0.469,0.031-0.992,0.383-1.57,1.055   s-1.18,1.562-1.805,2.672s-1.227,2.367-1.805,3.773s-1.094,2.859-1.547,4.359s-0.812,2.992-1.078,4.477s-0.383,2.836-0.352,4.055   s0.234,2.25,0.609,3.094s0.969,1.391,1.781,1.641c0.562,0.125,1.172-0.078,1.828-0.609s1.305-1.266,1.945-2.203   s1.258-2.047,1.852-3.328s1.148-2.609,1.664-3.984s0.953-2.742,1.312-4.102s0.633-2.617,0.82-3.773c0-0.562-0.062-1.25-0.188-2.062   s-0.328-1.594-0.609-2.344s-0.656-1.391-1.125-1.922S461.045,288.244,460.357,288.244z"/>
	<path fill="#CC003D" d="M478.238,315.807c0-3.125-0.078-6.07-0.234-8.836s-0.312-5.5-0.469-8.203s-0.312-5.461-0.469-8.273   s-0.234-5.812-0.234-9c0.125-0.438,0.32-0.703,0.586-0.797s0.539-0.086,0.82,0.023s0.516,0.289,0.703,0.539   s0.266,0.484,0.234,0.703l1.266,20.625c0.75-0.625,1.461-1.484,2.133-2.578s1.336-2.289,1.992-3.586s1.305-2.609,1.945-3.938   s1.289-2.555,1.945-3.68c0.188-0.156,0.383-0.219,0.586-0.188s0.383,0.125,0.539,0.281s0.266,0.352,0.328,0.586   s0.047,0.445-0.047,0.633c0,0.375-0.133,0.891-0.398,1.547s-0.602,1.391-1.008,2.203s-0.867,1.672-1.383,2.578   s-1.031,1.797-1.547,2.672s-1,1.703-1.453,2.484s-0.836,1.453-1.148,2.016c0.562,0.344,1.328,0.789,2.297,1.336   s2.023,1.125,3.164,1.734s2.289,1.234,3.445,1.875s2.211,1.234,3.164,1.781s1.742,1,2.367,1.359s0.953,0.586,0.984,0.68   c0.125,0.156,0.172,0.336,0.141,0.539s-0.117,0.391-0.258,0.562s-0.336,0.305-0.586,0.398s-0.531,0.109-0.844,0.047   c-1.25-0.438-2.297-0.875-3.141-1.312s-1.602-0.875-2.273-1.312s-1.305-0.875-1.898-1.312s-1.266-0.891-2.016-1.359   s-1.648-0.945-2.695-1.43s-2.336-0.992-3.867-1.523v9.984c0,0.218-0.109,0.405-0.328,0.562c-0.219,0.156-0.469,0.258-0.75,0.305   s-0.57,0.016-0.867-0.094C478.668,316.329,478.426,316.118,478.238,315.807z"/>
	<path fill="#CC003D" d="M499.607,291.971c-0.734,0.172-1.508,0.336-2.32,0.492c-0.125,0-0.258-0.141-0.398-0.422   s-0.273-0.828-0.398-1.641c0.406-0.125,0.852-0.227,1.336-0.305s0.977-0.18,1.477-0.305s0.977-0.273,1.43-0.445   s0.836-0.414,1.148-0.727v-7.078c0-0.156,0.055-0.344,0.164-0.562s0.266-0.414,0.469-0.586s0.445-0.305,0.727-0.398   s0.594-0.094,0.938,0l0.094,8.25l11.766-2.25c0,0.344-0.086,0.656-0.258,0.938s-0.383,0.531-0.633,0.75s-0.516,0.398-0.797,0.539   s-0.531,0.242-0.75,0.305c-0.656,0.188-1.422,0.375-2.297,0.562s-1.758,0.375-2.648,0.562s-1.734,0.391-2.531,0.609   s-1.445,0.438-1.945,0.656v23.859c0,0.219-0.109,0.391-0.328,0.516s-0.461,0.227-0.727,0.305c-0.266,0.077-0.523,0.124-0.773,0.141   c-0.25,0.016-0.406,0.023-0.469,0.023v-24.047C501.1,291.713,500.342,291.799,499.607,291.971z"/>
	<path fill="#CC003D" d="M532.863,314.588c-0.062-1.312-0.125-2.5-0.188-3.562s-0.125-2.117-0.188-3.164s-0.141-2.141-0.234-3.281   s-0.203-2.445-0.328-3.914s-0.266-3.141-0.422-5.016s-0.328-4.094-0.516-6.656c0-0.125-0.008-0.328-0.023-0.609   s-0.008-0.562,0.023-0.844s0.109-0.531,0.234-0.75s0.328-0.359,0.609-0.422c0.688,0.125,1.102,0.43,1.242,0.914   s0.211,1.211,0.211,2.18s0.023,2.203,0.07,3.703s0.32,3.328,0.82,5.484c0.562-1.625,1.211-3.227,1.945-4.805   s1.609-2.969,2.625-4.172s2.188-2.156,3.516-2.859s2.852-0.992,4.57-0.867v1.547c-1.656,0.125-3.094,0.586-4.312,1.383   s-2.258,1.844-3.117,3.141s-1.562,2.812-2.109,4.547s-0.984,3.578-1.312,5.531s-0.57,3.977-0.727,6.07s-0.266,4.172-0.328,6.234   c0,0.75-0.234,1.125-0.703,1.125S533.301,315.213,532.863,314.588z"/>
	<path fill="#CC003D" d="M552.15,285.479c-0.375,0.156-0.758,0.188-1.148,0.094s-0.703-0.266-0.938-0.516s-0.344-0.547-0.328-0.891   s0.273-0.703,0.773-1.078c0.531-0.188,1.07-0.195,1.617-0.023s0.961,0.406,1.242,0.703s0.359,0.617,0.234,0.961   S552.994,285.322,552.15,285.479z M552.713,287.025c0.594,2.031,1.07,4.297,1.43,6.797s0.641,5,0.844,7.5s0.344,4.891,0.422,7.172   s0.148,4.188,0.211,5.719c0,0.625-0.18,0.992-0.539,1.102s-0.82,0.117-1.383,0.023c-0.406-4.562-0.75-9.148-1.031-13.758   s-0.781-9.195-1.5-13.758L552.713,287.025z"/>
	<path fill="#CC003D" d="M549.969,331.604c-0.094-0.312-0.094-0.586,0-0.82s0.227-0.415,0.398-0.539   c0.172-0.125,0.344-0.188,0.516-0.188s0.289,0.077,0.352,0.234c1.562,1.219,3.078,1.961,4.547,2.227   c1.469,0.265,2.766,0.211,3.891-0.164s2.031-1.008,2.719-1.898s1.047-1.898,1.078-3.023c-0.031-0.938-0.094-2.196-0.188-3.773   c-0.094-1.578-0.211-3.345-0.352-5.297c-0.141-1.953-0.305-4.039-0.492-6.258s-0.375-4.422-0.562-6.609s-0.383-4.297-0.586-6.328   s-0.383-3.852-0.539-5.461s-0.305-2.93-0.445-3.961s-0.242-1.656-0.305-1.875c0-0.094,0.062-0.195,0.188-0.305   s0.297-0.219,0.516-0.328s0.453-0.188,0.703-0.234s0.5-0.039,0.75,0.023c0.25,1.562,0.516,3.453,0.797,5.672   s0.547,4.602,0.797,7.148s0.492,5.172,0.727,7.875s0.438,5.32,0.609,7.852s0.312,4.882,0.422,7.055   c0.109,2.172,0.18,3.991,0.211,5.461c0,1.5-0.32,2.711-0.961,3.633c-0.641,0.921-1.477,1.617-2.508,2.086s-2.164,0.733-3.398,0.797   c-1.234,0.062-2.438-0.031-3.609-0.281c-1.172-0.251-2.234-0.609-3.188-1.078S550.406,332.229,549.969,331.604z M558.969,281.26   c0.344-0.062,0.672-0.016,0.984,0.141s0.562,0.375,0.75,0.656s0.281,0.594,0.281,0.938s-0.141,0.688-0.422,1.031   c-0.969,0.281-1.656,0.305-2.062,0.07s-0.625-0.555-0.656-0.961s0.07-0.805,0.305-1.195S558.656,281.322,558.969,281.26z"/>
	<path fill="#CC003D" d="M569.818,315.807c0-3.125-0.078-6.07-0.234-8.836s-0.312-5.5-0.469-8.203s-0.312-5.461-0.469-8.273   s-0.234-5.812-0.234-9c0.125-0.438,0.32-0.703,0.586-0.797s0.539-0.086,0.82,0.023s0.516,0.289,0.703,0.539   s0.266,0.484,0.234,0.703l1.266,20.625c0.75-0.625,1.461-1.484,2.133-2.578s1.336-2.289,1.992-3.586s1.305-2.609,1.945-3.938   s1.289-2.555,1.945-3.68c0.188-0.156,0.383-0.219,0.586-0.188s0.383,0.125,0.539,0.281s0.266,0.352,0.328,0.586   s0.047,0.445-0.047,0.633c0,0.375-0.133,0.891-0.398,1.547s-0.602,1.391-1.008,2.203s-0.867,1.672-1.383,2.578   s-1.031,1.797-1.547,2.672s-1,1.703-1.453,2.484s-0.836,1.453-1.148,2.016c0.562,0.344,1.328,0.789,2.297,1.336   s2.023,1.125,3.164,1.734s2.289,1.234,3.445,1.875s2.211,1.234,3.164,1.781s1.742,1,2.367,1.359s0.953,0.586,0.984,0.68   c0.125,0.156,0.172,0.336,0.141,0.539s-0.117,0.391-0.258,0.562s-0.336,0.305-0.586,0.398s-0.531,0.109-0.844,0.047   c-1.25-0.438-2.297-0.875-3.141-1.312s-1.602-0.875-2.273-1.312s-1.305-0.875-1.898-1.312s-1.266-0.891-2.016-1.359   s-1.648-0.945-2.695-1.43s-2.336-0.992-3.867-1.523v9.984c0,0.218-0.109,0.405-0.328,0.562c-0.219,0.156-0.469,0.258-0.75,0.305   s-0.57,0.016-0.867-0.094C570.248,316.329,570.006,316.118,569.818,315.807z"/>
</g>
<g>
	<path fill="#FFCE00" d="M97.41,230.256l-3.4-18.6l-1.8-7.399l-23.2-0.399l-20,0.6l-1.6,5.199l-3.6,20.6H12.012l41.599-128.998h39   l37.799,128.998H97.41z M73.411,130.858h-2l-15,49l14.8,0.4l14.8-0.4L73.411,130.858z"/>
	<path fill="#FFCE00" d="M258.608,230.256h-35.2l-45.799-79.798h-2l-0.2,34.4l1.4,45.398H147.01l1.8-37.999l-1.6-90.999h35.2   l45.799,79.798h2l-1-78.598l30-1.8l-1.8,88.799L258.608,230.256z"/>
	<path fill="#FFCE00" d="M341.806,100.458c37.799,0,58.399,21.399,58.399,60.199c0,45.8-23.6,71.199-66.398,71.199   c-11.2,0-32.399-0.8-46.399-1.601h-0.2l1.8-38.199l-1.8-90.798h0.2L341.806,100.458z M366.406,168.458   c0-30.6-8.199-42.399-27.199-42.399c-4,0-12.8,0.2-19.4,0.8l-1.2,62l0.4,16.799c7.4,1,16.799,1.601,20.799,1.601   C356.407,207.257,366.406,196.257,366.406,168.458z"/>
	<path fill="#FFCE00" d="M506.205,206.257l-2,23.999h-85.197l1.799-38.199l-1.799-90.798h86.398l1.799,2.4l-2.199,24l-31.4-1.2   l-21.998,0.2l-0.4,25.8h21l20.998-0.6l1.801,2.4l-2,24l-23-0.601h-19.398l-0.201,11.2l0.4,16l21.199,0.199l32.4-1.199   L506.205,206.257z"/>
	<path fill="#FFCE00" d="M628.402,222.656l-0.398,3.6c-10.4,3.4-21.201,5.4-32.201,6.201l-3.199-2.601   c-7.199-13.399-14.199-26.999-20.799-40.999h-17l1.199,41.398h-32.6l1.801-38.199l-1.801-90.798l54.4-0.2   c27.799,0,43.598,13.8,43.598,39c0,16-8.6,30-22.998,39.2C607.803,193.857,617.604,208.457,628.402,222.656z M572.805,165.257   c9.799-3.6,14.398-10.6,14.398-22.2c0-12.6-6.4-18.2-20.199-18.8l-10.801,0.6l-0.799,39.6L572.805,165.257z"/>
</g>
<g>
	<path fill="#CC003D" d="M724.209,106.058l-5.201,27.2l-4.799,1.8c-10.199-6.6-21-10.6-28.4-10.6c-9.199,0-14.398,5.4-14.398,11   c0,18.399,55.598,17.399,55.598,55.399c0,22.999-19.799,41.398-50.998,41.398c-12.801,0-26.6-2.6-40-8l4.6-28.999l3.4-2   c12,10,26.6,14.8,35.4,14.8c10.799,0,15.398-5.8,15.398-11.4c0-19.398-55.199-17.199-55.199-55.798c0-23.6,20.201-41.6,49.799-41.6   C699.01,99.258,711.209,101.058,724.209,106.058z"/>
</g>
<line fill="none" stroke="#FFD44D" stroke-width="3" x1="599" y1="302.699" x2="730.812" y2="302.699"/>
<line fill="none" stroke="#FFD44D" stroke-width="3" x1="10.812" y1="302.699" x2="141.206" y2="302.699"/>
</svg>
