<svg version="1.2" baseProfile="tiny-ps" xmlns="http://www.w3.org/2000/svg" viewBox="0 0 738 250" width="738" height="250">
	<title>logo-svg</title>
	<style>
		tspan { white-space:pre }
		.shp0 { fill: #cc003d } 
		.shp1 { fill: #ffce00 } 
		.shp2 { fill: none;stroke: #ffd44d;stroke-width: 3 } 
	</style>
	<g id="Layer">
		<path id="Layer" class="shp0" d="M152.69 194.84C152.94 194.12 153.28 193.8 153.7 193.88C154.12 193.95 154.47 194.18 154.76 194.56L158.51 218.37C158.88 217.99 159.23 217.23 159.54 216.07C159.85 214.92 160.17 213.6 160.5 212.11C160.83 210.63 161.19 209.08 161.6 207.47C162.01 205.86 162.52 204.39 163.15 203.06C163.77 201.74 164.52 200.67 165.38 199.85C166.23 199.04 167.29 198.68 168.54 198.77C169.35 198.77 170.08 199.16 170.72 199.92C171.36 200.69 171.94 201.68 172.45 202.9C172.97 204.12 173.46 205.48 173.93 206.98C174.4 208.48 174.87 209.96 175.34 211.43C175.8 212.9 176.3 214.27 176.84 215.53C177.37 216.8 177.98 217.81 178.66 218.56C178.73 217.77 178.84 216.49 179.02 214.71C179.19 212.93 179.45 210.95 179.79 208.76C180.13 206.57 180.58 204.34 181.13 202.08C181.67 199.81 182.35 197.79 183.16 196.01C184.16 193.85 185.08 192.44 185.91 191.77C186.73 191.09 187.57 191.09 188.41 191.74C187.2 192.77 186.2 194.21 185.44 196.06C184.67 197.9 184.04 199.92 183.54 202.13C183.04 204.33 182.65 206.59 182.37 208.92C182.09 211.25 181.81 213.44 181.55 215.48C181.28 217.53 180.99 219.31 180.68 220.83C180.37 222.34 179.95 223.38 179.41 223.95C178.48 222.98 177.62 221.74 176.84 220.24C176.06 218.74 175.34 217.15 174.68 215.46C174.02 213.77 173.41 212.08 172.85 210.38C172.29 208.67 171.77 207.14 171.28 205.78C170.8 204.42 170.34 203.31 169.9 202.45C169.46 201.6 169.04 201.17 168.63 201.17C167.66 201.07 166.89 201.39 166.31 202.13C165.73 202.86 165.24 203.85 164.84 205.08C164.43 206.31 164.08 207.73 163.78 209.32C163.48 210.92 163.13 212.56 162.73 214.24C162.32 215.93 161.83 217.6 161.25 219.24C160.67 220.88 159.9 222.34 158.93 223.62C158.59 223.62 158.24 223.23 157.9 222.45C157.55 221.67 157.2 220.63 156.84 219.33C156.48 218.03 156.13 216.56 155.79 214.9C155.44 213.24 155.12 211.54 154.83 209.79C154.53 208.04 154.25 206.31 153.98 204.59C153.72 202.87 153.49 201.32 153.3 199.95C153.12 198.57 152.97 197.42 152.86 196.5C152.75 195.58 152.69 195.02 152.69 194.84Z" />
		<path id="Layer" fill-rule="evenodd" class="shp0" d="M190.65 223.62C189.59 223.59 188.77 223.17 188.19 222.38C187.61 221.58 187.21 220.54 186.99 219.26C186.78 217.98 186.74 216.51 186.88 214.85C187.02 213.2 187.29 211.5 187.7 209.75C188.1 208 188.63 206.26 189.27 204.54C189.91 202.82 190.62 201.25 191.4 199.83C192.18 198.41 193.03 197.19 193.93 196.18C194.84 195.16 195.76 194.5 196.7 194.18C197.48 194.18 198.14 194.33 198.69 194.63C199.23 194.93 199.7 195.32 200.07 195.82C200.45 196.32 200.75 196.88 200.99 197.51C201.22 198.14 201.41 198.78 201.57 199.43C201.6 199.15 201.71 198.73 201.88 198.17C202.05 197.6 202.25 197.1 202.49 196.64C202.72 196.19 202.97 195.89 203.24 195.73C203.5 195.57 203.76 195.75 204.01 196.25C203.6 199.53 203.32 202.35 203.17 204.73C203.01 207.1 202.95 209.12 202.98 210.78C203.01 212.43 203.13 213.78 203.35 214.81C203.57 215.84 203.87 216.65 204.24 217.25C204.62 217.84 205.06 218.28 205.56 218.56C206.06 218.84 206.6 219.06 207.2 219.21C208.04 219.37 208.77 219.3 209.38 219C209.99 218.71 210.52 218.31 210.99 217.81C211.46 217.31 211.88 216.79 212.24 216.26C212.59 215.73 212.95 215.31 213.29 214.99C213.51 215.65 213.49 216.35 213.24 217.1C212.99 217.85 212.59 218.55 212.05 219.19C211.5 219.83 210.83 220.35 210.03 220.74C209.24 221.13 208.4 221.31 207.52 221.28C206.18 221.28 205.08 220.92 204.22 220.2C203.36 219.48 202.67 218.57 202.16 217.48C201.64 216.38 201.27 215.21 201.06 213.96C200.84 212.71 200.7 211.54 200.63 210.45C200.29 211.35 199.84 212.55 199.27 214.03C198.71 215.52 198.03 216.97 197.24 218.39C196.44 219.81 195.49 221.04 194.4 222.07C193.31 223.1 192.06 223.62 190.65 223.62ZM196.79 196.24C196.32 196.28 195.8 196.63 195.22 197.3C194.64 197.97 194.04 198.86 193.42 199.97C192.79 201.08 192.19 202.34 191.61 203.74C191.03 205.15 190.52 206.6 190.06 208.1C189.61 209.6 189.25 211.1 188.99 212.58C188.72 214.06 188.6 215.42 188.63 216.64C188.66 217.85 188.87 218.89 189.24 219.73C189.62 220.57 190.21 221.12 191.02 221.37C191.59 221.5 192.2 221.29 192.85 220.76C193.51 220.23 194.16 219.5 194.8 218.56C195.44 217.62 196.06 216.51 196.65 215.23C197.24 213.95 197.8 212.62 198.31 211.25C198.83 209.87 199.27 208.5 199.63 207.14C199.98 205.79 200.26 204.53 200.44 203.37C200.44 202.81 200.38 202.12 200.26 201.31C200.13 200.5 199.93 199.72 199.65 198.97C199.37 198.22 198.99 197.57 198.52 197.04C198.05 196.51 197.48 196.24 196.79 196.24Z" />
		<path id="Layer" class="shp0" d="M216.26 209.7C216.23 209.07 216.29 208.24 216.43 207.21C216.57 206.18 216.8 205.08 217.11 203.91C217.42 202.74 217.82 201.56 218.3 200.39C218.79 199.22 219.35 198.17 219.99 197.23C220.63 196.29 221.34 195.54 222.12 194.98C222.91 194.42 223.77 194.17 224.7 194.23C225.8 194.23 226.7 194.58 227.42 195.28C228.14 195.99 228.71 196.83 229.13 197.81C229.56 198.8 229.87 199.82 230.07 200.88C230.27 201.95 230.42 202.82 230.52 203.51C230.61 203.95 230.67 204.67 230.7 205.67C230.73 206.67 230.77 207.8 230.8 209.06C230.83 210.33 230.87 211.66 230.91 213.05C230.96 214.44 231.02 215.75 231.1 216.99C231.18 218.22 231.28 219.3 231.41 220.22C231.53 221.14 231.7 221.77 231.92 222.12C231.95 222.4 231.83 222.67 231.55 222.94C231.27 223.2 230.94 223.41 230.56 223.55C230.19 223.69 229.83 223.72 229.49 223.64C229.14 223.56 228.92 223.3 228.83 222.87C228.49 221.46 228.27 219.82 228.17 217.94C228.08 216.07 228.02 214.14 227.99 212.16C227.96 210.17 227.93 208.23 227.92 206.34C227.9 204.45 227.8 202.77 227.61 201.28C227.42 199.8 227.1 198.63 226.65 197.77C226.2 196.91 225.55 196.52 224.71 196.62C223.77 196.68 222.93 197.12 222.2 197.93C221.46 198.74 220.81 199.8 220.25 201.09C219.69 202.39 219.21 203.86 218.82 205.5C218.43 207.14 218.1 208.81 217.81 210.52C217.53 212.22 217.3 213.87 217.11 215.46C216.92 217.05 216.78 218.46 216.67 219.68C216.56 220.9 216.46 221.84 216.39 222.52C216.31 223.19 216.24 223.46 216.17 223.34C216.08 223.34 215.91 223.34 215.66 223.36C215.41 223.37 215.16 223.37 214.91 223.36C214.66 223.34 214.44 223.3 214.25 223.22C214.07 223.14 213.97 222.99 213.97 222.77L213.97 199.71C213.97 198.99 214.15 198.33 214.51 197.72C214.87 197.11 215.46 196.8 216.27 196.8L216.27 209.7L216.26 209.7Z" />
		<path id="Layer" class="shp0" d="M236.33 199.97C235.59 200.14 234.82 200.31 234.01 200.46C233.88 200.46 233.75 200.32 233.61 200.04C233.47 199.76 233.34 199.21 233.21 198.4C233.62 198.27 234.06 198.17 234.55 198.09C235.03 198.02 235.52 197.91 236.02 197.79C236.52 197.66 237 197.52 237.45 197.34C237.91 197.17 238.29 196.93 238.6 196.62L238.6 189.54C238.6 189.38 238.66 189.2 238.77 188.98C238.88 188.76 239.03 188.56 239.24 188.39C239.44 188.22 239.68 188.09 239.96 187.99C240.24 187.9 240.56 187.9 240.9 187.99L240.99 196.24L252.76 193.99C252.76 194.34 252.67 194.65 252.5 194.93C252.33 195.21 252.12 195.46 251.87 195.68C251.62 195.9 251.35 196.08 251.07 196.22C250.79 196.36 250.54 196.46 250.32 196.53C249.67 196.71 248.9 196.9 248.02 197.09C247.15 197.28 246.27 197.46 245.38 197.65C244.49 197.84 243.64 198.04 242.85 198.26C242.05 198.48 241.4 198.7 240.9 198.91L240.9 222.77C240.9 222.99 240.79 223.16 240.57 223.29C240.35 223.41 240.11 223.52 239.85 223.59C239.58 223.67 239.32 223.72 239.07 223.74C238.82 223.75 238.67 223.76 238.6 223.76L238.6 199.71C237.82 199.71 237.06 199.8 236.33 199.97Z" />
		<path id="Layer" fill-rule="evenodd" class="shp0" d="M273.38 241.43C273 241.15 272.78 240.81 272.72 240.42C272.66 240.03 272.7 239.69 272.84 239.39C272.98 239.1 273.2 238.89 273.5 238.78C273.79 238.67 274.08 238.74 274.36 239C275.8 239.87 277.13 240.28 278.35 240.24C279.56 240.19 280.66 239.84 281.63 239.18C282.6 238.53 283.43 237.64 284.13 236.51C284.84 235.39 285.41 234.15 285.85 232.81C286.28 231.46 286.6 230.09 286.78 228.68C286.97 227.28 287.02 225.96 286.93 224.74L285.14 202.43C283.74 206.28 282.39 209.49 281.09 212.07C279.79 214.64 278.57 216.74 277.43 218.35C276.29 219.96 275.23 221.14 274.25 221.91C273.26 222.67 272.38 223.17 271.6 223.41C270.82 223.64 270.14 223.67 269.56 223.5C268.98 223.33 268.53 223.09 268.22 222.78C267.82 221.87 267.6 220.66 267.57 219.14C267.53 217.63 267.65 215.98 267.92 214.2C268.18 212.42 268.6 210.56 269.16 208.64C269.72 206.72 270.38 204.88 271.13 203.13C271.88 201.38 272.73 199.81 273.68 198.42C274.64 197.03 275.66 195.97 276.75 195.24C277.85 194.5 278.98 194.17 280.15 194.25C281.32 194.33 282.52 194.96 283.74 196.15C283.74 195.59 283.85 195.14 284.07 194.81C284.28 194.49 284.56 194.29 284.89 194.23C285.21 194.16 285.54 194.2 285.87 194.34C286.2 194.48 286.49 194.74 286.74 195.12L289.36 224.46C289.42 225.21 289.42 226.27 289.34 227.63C289.26 228.98 289.05 230.44 288.71 231.98C288.36 233.53 287.84 235.05 287.14 236.55C286.43 238.05 285.47 239.3 284.25 240.3C283.03 241.3 281.54 241.96 279.78 242.27C278.01 242.59 275.88 242.31 273.38 241.43ZM279.33 196.52C278.49 196.71 277.62 197.35 276.73 198.45C275.84 199.54 274.99 200.89 274.18 202.5C273.36 204.11 272.63 205.87 271.97 207.78C271.32 209.68 270.81 211.52 270.45 213.28C270.09 215.05 269.89 216.65 269.86 218.09C269.83 219.53 270.05 220.57 270.52 221.23C271.05 221.35 271.73 221.07 272.56 220.36C273.39 219.66 274.26 218.69 275.18 217.46C276.1 216.22 277.03 214.81 277.95 213.24C278.87 211.66 279.7 210.06 280.43 208.46C281.17 206.85 281.76 205.3 282.21 203.81C282.67 202.33 282.89 201.07 282.89 200.04C282.89 199.57 282.78 199.13 282.57 198.71C282.35 198.28 282.07 197.91 281.75 197.58C281.42 197.25 281.04 196.99 280.6 196.81C280.16 196.62 279.74 196.52 279.33 196.52Z" />
		<path id="Layer" fill-rule="evenodd" class="shp0" d="M292.06 217.62C292.06 216.56 292.2 215.18 292.48 213.49C292.76 211.81 293.16 210.03 293.67 208.17C294.19 206.32 294.81 204.46 295.55 202.62C296.28 200.78 297.1 199.16 297.99 197.77C298.88 196.38 299.84 195.32 300.87 194.6C301.9 193.88 302.99 193.71 304.15 194.09C304.37 194.06 304.69 194.25 305.11 194.67C305.53 195.1 305.87 195.75 306.12 196.64C306.37 197.53 306.45 198.66 306.35 200.02C306.26 201.38 305.83 203 305.06 204.89C304.3 206.78 303.11 208.93 301.5 211.34C299.89 213.74 297.68 216.43 294.87 219.4C295.43 220.27 296.1 220.79 296.88 220.95C297.67 221.1 298.49 221.02 299.37 220.71C300.24 220.4 301.12 219.91 301.99 219.24C302.87 218.56 303.68 217.85 304.43 217.1C305.18 216.35 305.83 215.61 306.38 214.88C306.92 214.14 307.31 213.56 307.52 213.12C308.06 213.59 308.26 214.17 308.13 214.88C308.01 215.58 307.67 216.32 307.13 217.1C306.58 217.88 305.88 218.66 305.02 219.42C304.16 220.19 303.26 220.87 302.32 221.46C301.38 222.06 300.46 222.53 299.56 222.89C298.65 223.25 297.88 223.4 297.26 223.34C296.6 223.34 295.96 223.17 295.34 222.84C294.71 222.52 294.16 222.09 293.67 221.56C293.19 221.02 292.8 220.41 292.5 219.73C292.2 219.04 292.06 218.34 292.06 217.62ZM302.84 196.71C302.18 196.71 301.5 197.13 300.8 197.96C300.1 198.78 299.42 199.83 298.76 201.1C298.1 202.36 297.49 203.75 296.91 205.27C296.33 206.78 295.84 208.25 295.43 209.67C295.02 211.1 294.73 212.36 294.54 213.47C294.35 214.58 294.31 215.37 294.4 215.84C294.9 215.87 295.56 215.45 296.39 214.57C297.22 213.7 298.07 212.58 298.95 211.22C299.82 209.86 300.65 208.38 301.43 206.77C302.21 205.16 302.83 203.63 303.28 202.2C303.73 200.76 303.95 199.53 303.94 198.52C303.92 197.5 303.56 196.9 302.84 196.71Z" />
		<path id="Layer" class="shp0" d="M310.97 194.56C311.41 194.56 311.78 194.61 312.09 194.72C312.41 194.83 312.66 195.09 312.84 195.49C313.34 197.03 313.87 198.89 314.41 201.07C314.96 203.26 315.55 205.49 316.17 207.77C316.8 210.06 317.47 212.25 318.19 214.36C318.91 216.47 319.69 218.21 320.53 219.59C321 218.15 321.48 216.49 321.96 214.6C322.45 212.7 322.96 210.76 323.51 208.76C324.06 206.76 324.66 204.78 325.31 202.83C325.97 200.88 326.7 199.11 327.49 197.53C328.29 195.95 329.19 194.64 330.19 193.59C331.19 192.55 332.33 191.95 333.61 191.79C333.33 192.41 332.98 193.03 332.56 193.64C332.13 194.25 331.65 195.01 331.1 195.91C330.56 196.82 329.96 197.95 329.3 199.29C328.64 200.63 327.93 202.37 327.17 204.49C326.4 206.62 325.58 209.21 324.7 212.27C323.83 215.34 322.91 219.02 321.94 223.34C321.72 223.59 321.49 223.7 321.26 223.69C321.02 223.67 320.74 223.62 320.39 223.52C319.64 222.68 318.89 221.52 318.14 220.05C317.39 218.59 316.66 216.95 315.96 215.16C315.26 213.36 314.6 211.48 313.99 209.53C313.38 207.58 312.86 205.67 312.42 203.81C311.98 201.95 311.63 200.22 311.37 198.61C311.1 197 310.97 195.65 310.97 194.56Z" />
		<path id="Layer" fill-rule="evenodd" class="shp0" d="M331.81 217.62C331.81 216.56 331.95 215.18 332.23 213.49C332.51 211.81 332.91 210.03 333.43 208.17C333.94 206.32 334.57 204.46 335.3 202.62C336.04 200.78 336.85 199.16 337.74 197.77C338.63 196.38 339.59 195.32 340.62 194.6C341.65 193.88 342.75 193.71 343.9 194.09C344.12 194.06 344.44 194.25 344.87 194.67C345.29 195.1 345.62 195.75 345.87 196.64C346.12 197.53 346.2 198.66 346.11 200.02C346.01 201.38 345.58 203 344.82 204.89C344.05 206.78 342.87 208.93 341.26 211.34C339.65 213.74 337.44 216.43 334.62 219.4C335.19 220.27 335.86 220.79 336.64 220.95C337.42 221.1 338.25 221.02 339.12 220.71C340 220.4 340.87 219.91 341.75 219.24C342.62 218.56 343.44 217.85 344.19 217.1C344.94 216.35 345.58 215.61 346.13 214.88C346.68 214.14 347.06 213.56 347.28 213.12C347.81 213.59 348.01 214.17 347.89 214.88C347.76 215.58 347.43 216.32 346.88 217.1C346.33 217.88 345.63 218.66 344.77 219.42C343.91 220.19 343.01 220.87 342.08 221.46C341.14 222.06 340.22 222.53 339.31 222.89C338.4 223.25 337.64 223.4 337.01 223.34C336.36 223.34 335.72 223.17 335.09 222.84C334.47 222.52 333.91 222.09 333.43 221.56C332.94 221.02 332.55 220.41 332.25 219.73C331.96 219.04 331.81 218.34 331.81 217.62ZM342.59 196.71C341.94 196.71 341.26 197.13 340.55 197.96C339.85 198.78 339.17 199.83 338.51 201.1C337.86 202.36 337.24 203.75 336.66 205.27C336.08 206.78 335.59 208.25 335.19 209.67C334.78 211.1 334.48 212.36 334.29 213.47C334.11 214.58 334.06 215.37 334.15 215.84C334.65 215.87 335.32 215.45 336.15 214.57C336.97 213.7 337.83 212.58 338.7 211.22C339.58 209.86 340.4 208.38 341.19 206.77C341.97 205.16 342.58 203.63 343.04 202.2C343.49 200.76 343.71 199.53 343.69 198.52C343.68 197.5 343.31 196.9 342.59 196.71Z" />
		<path id="Layer" class="shp0" d="M354 209.7C353.97 209.07 354.03 208.24 354.17 207.21C354.31 206.18 354.54 205.08 354.85 203.91C355.16 202.74 355.56 201.56 356.04 200.39C356.53 199.22 357.09 198.17 357.73 197.23C358.37 196.29 359.08 195.54 359.86 194.98C360.64 194.42 361.5 194.17 362.44 194.23C363.54 194.23 364.44 194.58 365.16 195.28C365.88 195.99 366.45 196.83 366.87 197.81C367.29 198.8 367.61 199.82 367.81 200.88C368.01 201.95 368.16 202.82 368.25 203.51C368.35 203.95 368.41 204.67 368.44 205.67C368.47 206.67 368.5 207.8 368.54 209.06C368.57 210.33 368.61 211.66 368.65 213.05C368.7 214.44 368.76 215.75 368.84 216.99C368.92 218.22 369.02 219.3 369.15 220.22C369.27 221.14 369.44 221.77 369.66 222.12C369.69 222.4 369.57 222.67 369.29 222.94C369.01 223.2 368.68 223.41 368.3 223.55C367.93 223.69 367.57 223.72 367.23 223.64C366.88 223.56 366.66 223.3 366.57 222.87C366.23 221.46 366.01 219.82 365.91 217.94C365.82 216.07 365.76 214.14 365.73 212.16C365.69 210.17 365.67 208.23 365.66 206.34C365.64 204.45 365.54 202.77 365.35 201.28C365.16 199.8 364.84 198.63 364.39 197.77C363.94 196.91 363.29 196.52 362.44 196.62C361.51 196.68 360.67 197.12 359.94 197.93C359.2 198.74 358.55 199.8 357.99 201.09C357.43 202.39 356.95 203.86 356.56 205.5C356.17 207.14 355.84 208.81 355.55 210.52C355.27 212.22 355.04 213.87 354.85 215.46C354.66 217.05 354.52 218.46 354.41 219.68C354.3 220.9 354.2 221.84 354.13 222.52C354.05 223.19 353.98 223.46 353.91 223.34C353.82 223.34 353.65 223.34 353.4 223.36C353.15 223.37 352.9 223.37 352.65 223.36C352.4 223.34 352.18 223.3 351.99 223.22C351.81 223.14 351.71 222.99 351.71 222.77L351.71 199.71C351.71 198.99 351.89 198.33 352.25 197.72C352.61 197.11 353.19 196.8 354.01 196.8L354.01 209.7L354 209.7Z" />
		<path id="Layer" class="shp0" d="M415.45 197.6C414.52 197.29 413.7 197.43 412.99 198.03C412.29 198.62 411.67 199.52 411.12 200.72C410.57 201.92 410.09 203.37 409.67 205.06C409.24 206.75 408.85 208.52 408.47 210.38C408.1 212.24 407.7 214.1 407.3 215.98C406.89 217.85 406.45 219.6 405.99 221.23C405.99 221.48 405.86 221.65 405.61 221.75C405.36 221.84 405.1 221.88 404.81 221.86C404.53 221.85 404.28 221.78 404.04 221.67C403.81 221.56 403.67 221.42 403.64 221.23C403.39 219.85 403.2 218.32 403.06 216.61C402.92 214.91 402.78 213.17 402.64 211.41C402.49 209.64 402.35 207.91 402.21 206.21C402.07 204.5 401.89 202.96 401.65 201.57C401.42 200.17 401.13 199.02 400.78 198.1C400.44 197.17 400.02 196.6 399.52 196.39C399.02 196.39 398.57 196.62 398.16 197.09C397.75 197.56 397.37 198.17 397.01 198.92C396.65 199.67 396.34 200.49 396.07 201.4C395.81 202.31 395.57 203.2 395.37 204.07C395.17 204.95 395 205.74 394.85 206.46C394.71 207.18 394.63 207.71 394.6 208.06C394.53 208.34 394.46 208.85 394.36 209.6C394.27 210.35 394.15 211.21 394.01 212.18C393.87 213.15 393.74 214.18 393.61 215.28C393.49 216.37 393.36 217.41 393.24 218.39C393.11 219.38 393.01 220.25 392.93 221.02C392.85 221.78 392.8 222.31 392.77 222.59C392.83 222.9 392.76 223.17 392.56 223.39C392.35 223.6 392.11 223.76 391.83 223.85C391.55 223.95 391.27 223.96 390.99 223.88C390.71 223.8 390.53 223.62 390.47 223.34C390.25 221.78 390.07 220.06 389.93 218.18C389.79 216.31 389.67 214.39 389.56 212.42C389.45 210.45 389.35 208.51 389.28 206.6C389.2 204.7 389.14 202.95 389.11 201.35C389.11 200.98 389.13 200.57 389.16 200.14C389.19 199.7 389.28 199.29 389.42 198.92C389.56 198.54 389.78 198.23 390.1 197.98C390.41 197.73 390.83 197.6 391.36 197.6C391.36 199.57 391.43 201.44 391.57 203.21C391.71 204.97 391.96 206.84 392.3 208.81C392.43 208.21 392.57 207.43 392.75 206.46C392.92 205.49 393.14 204.46 393.43 203.37C393.71 202.28 394.03 201.17 394.41 200.06C394.78 198.95 395.23 197.96 395.75 197.09C396.26 196.21 396.86 195.49 397.55 194.93C398.24 194.37 399.03 194.09 399.94 194.09C400.79 194.15 401.49 194.56 402.05 195.33C402.61 196.09 403.07 197.06 403.41 198.24C403.75 199.41 404.02 200.72 404.21 202.17C404.39 203.63 404.54 205.1 404.65 206.58C404.76 208.06 404.85 209.48 404.91 210.82C404.97 212.17 405.07 213.32 405.19 214.29C405.63 212.76 406.03 211.19 406.41 209.58C406.78 207.97 407.18 206.42 407.58 204.94C407.99 203.45 408.43 202.06 408.92 200.77C409.4 199.47 409.96 198.37 410.61 197.46C411.25 196.55 411.99 195.88 412.83 195.42C413.68 194.97 414.66 194.84 415.79 195.02C416.57 195.06 417.25 195.45 417.82 196.22C418.4 196.98 418.9 197.99 419.32 199.22C419.75 200.45 420.1 201.87 420.38 203.46C420.66 205.06 420.88 206.69 421.04 208.36C421.19 210.03 421.31 211.7 421.39 213.35C421.47 215.01 421.5 216.52 421.5 217.87C421.5 219.23 421.48 220.39 421.43 221.34C421.39 222.3 421.33 222.93 421.27 223.24C420.74 223.87 420.32 224.01 420 223.66C419.69 223.32 419.46 222.65 419.3 221.65C419.15 220.65 419.03 219.4 418.95 217.9C418.87 216.4 418.8 214.81 418.74 213.14C418.68 211.47 418.6 209.77 418.5 208.05C418.41 206.33 418.25 204.75 418.01 203.3C417.78 201.84 417.46 200.6 417.05 199.57C416.65 198.54 416.11 197.88 415.45 197.6Z" />
		<path id="Layer" fill-rule="evenodd" class="shp0" d="M427.81 223.62C426.74 223.59 425.92 223.17 425.34 222.38C424.77 221.58 424.37 220.54 424.15 219.26C423.93 217.98 423.89 216.51 424.03 214.85C424.17 213.2 424.45 211.5 424.85 209.75C425.26 208 425.78 206.26 426.42 204.54C427.06 202.82 427.77 201.25 428.55 199.83C429.34 198.41 430.18 197.19 431.09 196.18C431.99 195.16 432.91 194.5 433.85 194.18C434.63 194.18 435.3 194.33 435.84 194.63C436.39 194.92 436.85 195.32 437.23 195.82C437.6 196.32 437.91 196.88 438.14 197.51C438.37 198.14 438.57 198.78 438.73 199.43C438.76 199.15 438.86 198.73 439.03 198.17C439.2 197.6 439.41 197.1 439.64 196.64C439.87 196.19 440.12 195.89 440.39 195.73C440.66 195.57 440.91 195.75 441.16 196.25C440.76 199.53 440.48 202.35 440.32 204.73C440.16 207.1 440.1 209.12 440.13 210.78C440.16 212.43 440.29 213.78 440.51 214.81C440.73 215.84 441.02 216.65 441.4 217.25C441.77 217.84 442.21 218.28 442.71 218.56C443.21 218.84 443.76 219.06 444.35 219.21C445.2 219.37 445.92 219.3 446.53 219C447.14 218.71 447.68 218.31 448.15 217.81C448.62 217.31 449.03 216.79 449.39 216.26C449.75 215.73 450.1 215.31 450.45 214.99C450.66 215.65 450.65 216.35 450.4 217.1C450.15 217.85 449.75 218.55 449.2 219.19C448.66 219.83 447.98 220.35 447.19 220.74C446.39 221.13 445.55 221.31 444.68 221.28C443.34 221.28 442.23 220.92 441.37 220.2C440.51 219.48 439.83 218.57 439.31 217.48C438.8 216.38 438.43 215.21 438.21 213.96C437.99 212.71 437.85 211.54 437.79 210.45C437.44 211.35 436.99 212.55 436.43 214.03C435.87 215.52 435.19 216.97 434.39 218.39C433.59 219.81 432.65 221.04 431.55 222.07C430.46 223.1 429.21 223.62 427.81 223.62ZM433.94 196.24C433.48 196.28 432.95 196.63 432.38 197.3C431.8 197.97 431.19 198.86 430.57 199.97C429.94 201.08 429.34 202.34 428.76 203.74C428.19 205.15 427.67 206.6 427.22 208.1C426.76 209.6 426.41 211.1 426.14 212.58C425.87 214.06 425.76 215.42 425.79 216.64C425.82 217.85 426.02 218.89 426.4 219.73C426.77 220.57 427.37 221.12 428.18 221.37C428.74 221.5 429.35 221.29 430.01 220.76C430.66 220.23 431.31 219.5 431.95 218.56C432.59 217.62 433.21 216.51 433.8 215.23C434.4 213.95 434.95 212.62 435.47 211.25C435.98 209.87 436.42 208.5 436.78 207.14C437.14 205.78 437.41 204.53 437.6 203.37C437.6 202.81 437.54 202.12 437.41 201.31C437.28 200.5 437.08 199.72 436.8 198.97C436.52 198.22 436.15 197.57 435.68 197.04C435.21 196.51 434.63 196.24 433.94 196.24Z" />
		<path id="Layer" fill-rule="evenodd" class="shp0" d="M454.22 223.62C453.15 223.59 452.33 223.17 451.76 222.38C451.18 221.58 450.78 220.54 450.56 219.26C450.34 217.98 450.3 216.51 450.44 214.85C450.58 213.2 450.86 211.5 451.26 209.75C451.67 208 452.19 206.26 452.83 204.54C453.47 202.82 454.19 201.25 454.97 199.83C455.75 198.41 456.59 197.19 457.5 196.18C458.4 195.16 459.33 194.5 460.26 194.18C461.04 194.18 461.71 194.33 462.26 194.63C462.8 194.92 463.26 195.32 463.64 195.82C464.01 196.32 464.32 196.88 464.55 197.51C464.79 198.14 464.98 198.78 465.14 199.43C465.17 199.15 465.27 198.73 465.44 198.17C465.62 197.6 465.82 197.1 466.05 196.64C466.29 196.19 466.54 195.89 466.8 195.73C467.07 195.57 467.33 195.75 467.58 196.25C467.17 199.53 466.89 202.35 466.73 204.73C466.58 207.1 466.51 209.12 466.54 210.78C466.57 212.43 466.7 213.78 466.92 214.81C467.14 215.84 467.44 216.65 467.81 217.25C468.19 217.84 468.62 218.28 469.12 218.56C469.62 218.84 470.17 219.06 470.76 219.21C471.61 219.37 472.33 219.3 472.94 219C473.55 218.71 474.09 218.31 474.56 217.81C475.03 217.31 475.44 216.79 475.8 216.26C476.16 215.73 476.51 215.31 476.86 214.99C477.08 215.65 477.06 216.35 476.81 217.1C476.56 217.85 476.16 218.55 475.62 219.19C475.07 219.83 474.4 220.35 473.6 220.74C472.8 221.13 471.97 221.31 471.09 221.28C469.75 221.28 468.65 220.92 467.79 220.2C466.93 219.48 466.24 218.57 465.72 217.48C465.21 216.38 464.84 215.21 464.62 213.96C464.4 212.71 464.26 211.54 464.2 210.45C463.86 211.35 463.4 212.55 462.84 214.03C462.28 215.52 461.6 216.97 460.8 218.39C460.01 219.81 459.06 221.04 457.97 222.07C456.87 223.1 455.62 223.62 454.22 223.62ZM460.36 196.24C459.89 196.28 459.37 196.63 458.79 197.3C458.21 197.97 457.61 198.86 456.98 199.97C456.36 201.08 455.76 202.34 455.18 203.74C454.6 205.15 454.08 206.6 453.63 208.1C453.18 209.6 452.82 211.1 452.55 212.58C452.29 214.06 452.17 215.42 452.2 216.64C452.23 217.85 452.43 218.89 452.81 219.73C453.18 220.57 453.78 221.12 454.59 221.37C455.15 221.5 455.76 221.29 456.42 220.76C457.07 220.23 457.72 219.5 458.36 218.56C459 217.62 459.62 216.51 460.21 215.23C460.81 213.95 461.36 212.62 461.88 211.25C462.39 209.87 462.83 208.5 463.19 207.14C463.55 205.78 463.82 204.53 464.01 203.37C464.01 202.81 463.95 202.12 463.82 201.31C463.7 200.5 463.5 199.72 463.21 198.97C462.93 198.22 462.56 197.57 462.09 197.04C461.62 196.51 461.05 196.24 460.36 196.24Z" />
		<path id="Layer" class="shp0" d="M478.24 223.81C478.24 220.68 478.16 217.74 478 214.97C477.85 212.2 477.69 209.47 477.54 206.77C477.38 204.07 477.22 201.31 477.07 198.5C476.91 195.68 476.83 192.68 476.83 189.5C476.96 189.06 477.15 188.79 477.42 188.7C477.68 188.6 477.96 188.61 478.24 188.72C478.52 188.83 478.75 189.01 478.94 189.26C479.13 189.51 479.21 189.74 479.18 189.96L480.44 210.59C481.19 209.96 481.9 209.1 482.57 208.01C483.25 206.92 483.91 205.72 484.57 204.42C485.22 203.13 485.87 201.81 486.51 200.49C487.15 199.16 487.8 197.93 488.46 196.81C488.64 196.65 488.84 196.59 489.04 196.62C489.25 196.65 489.43 196.74 489.58 196.9C489.74 197.06 489.85 197.25 489.91 197.49C489.97 197.72 489.96 197.93 489.86 198.12C489.86 198.49 489.73 199.01 489.46 199.67C489.2 200.32 488.86 201.06 488.46 201.87C488.05 202.68 487.59 203.54 487.07 204.45C486.56 205.35 486.04 206.24 485.53 207.12C485.01 207.99 484.53 208.82 484.07 209.6C483.62 210.38 483.24 211.05 482.92 211.62C483.49 211.96 484.25 212.41 485.22 212.95C486.19 213.5 487.25 214.08 488.39 214.69C489.53 215.3 490.67 215.92 491.83 216.56C492.99 217.2 494.04 217.8 494.99 218.34C495.95 218.89 496.74 219.34 497.36 219.7C497.99 220.06 498.31 220.29 498.35 220.38C498.47 220.54 498.52 220.72 498.49 220.92C498.46 221.12 498.37 221.31 498.23 221.48C498.09 221.65 497.89 221.79 497.64 221.88C497.39 221.98 497.11 221.99 496.8 221.93C495.55 221.49 494.5 221.05 493.66 220.62C492.81 220.18 492.06 219.74 491.38 219.31C490.71 218.87 490.08 218.43 489.49 217.99C488.89 217.56 488.22 217.1 487.47 216.63C486.72 216.17 485.82 215.69 484.78 215.2C483.73 214.72 482.44 214.21 480.91 213.68L480.91 223.66C480.91 223.88 480.8 224.07 480.58 224.23C480.36 224.38 480.11 224.48 479.83 224.53C479.55 224.58 479.26 224.55 478.96 224.44C478.67 224.33 478.43 224.12 478.24 223.81Z" />
		<path id="Layer" class="shp0" d="M499.61 199.97C498.87 200.14 498.1 200.31 497.29 200.46C497.16 200.46 497.03 200.32 496.89 200.04C496.75 199.76 496.62 199.21 496.49 198.4C496.9 198.27 497.34 198.17 497.83 198.09C498.31 198.02 498.8 197.91 499.3 197.79C499.8 197.66 500.28 197.52 500.73 197.34C501.19 197.17 501.57 196.93 501.88 196.62L501.88 189.54C501.88 189.38 501.94 189.2 502.05 188.98C502.15 188.76 502.31 188.56 502.51 188.39C502.72 188.22 502.96 188.09 503.24 187.99C503.52 187.9 503.84 187.9 504.18 187.99L504.27 196.24L516.04 193.99C516.04 194.34 515.95 194.65 515.78 194.93C515.61 195.21 515.4 195.46 515.15 195.68C514.9 195.9 514.63 196.08 514.35 196.22C514.07 196.36 513.82 196.46 513.6 196.53C512.95 196.71 512.18 196.9 511.3 197.09C510.43 197.27 509.55 197.46 508.66 197.65C507.77 197.84 506.92 198.04 506.13 198.26C505.33 198.48 504.68 198.7 504.18 198.91L504.18 222.77C504.18 222.99 504.07 223.16 503.85 223.29C503.63 223.41 503.39 223.52 503.13 223.59C502.86 223.67 502.6 223.72 502.35 223.74C502.1 223.75 501.95 223.76 501.88 223.76L501.88 199.71C501.1 199.71 500.34 199.8 499.61 199.97Z" />
		<path id="Layer" class="shp0" d="M532.86 222.59C532.8 221.28 532.74 220.09 532.68 219.03C532.61 217.96 532.55 216.91 532.49 215.86C532.42 214.82 532.35 213.72 532.25 212.58C532.16 211.44 532.05 210.14 531.93 208.67C531.8 207.2 531.66 205.53 531.5 203.65C531.35 201.78 531.18 199.56 530.99 197C530.99 196.87 530.98 196.67 530.96 196.39C530.95 196.11 530.96 195.82 530.99 195.54C531.02 195.26 531.1 195.01 531.22 194.79C531.35 194.57 531.55 194.43 531.83 194.37C532.52 194.5 532.93 194.8 533.07 195.28C533.21 195.77 533.28 196.5 533.28 197.46C533.28 198.43 533.31 199.67 533.35 201.17C533.4 202.67 533.67 204.49 534.17 206.65C534.74 205.03 535.38 203.42 536.12 201.85C536.85 200.27 537.73 198.88 538.74 197.67C539.76 196.47 540.93 195.52 542.26 194.81C543.59 194.11 545.11 193.82 546.83 193.95L546.83 195.49C545.17 195.62 543.74 196.08 542.52 196.88C541.3 197.67 540.26 198.72 539.4 200.02C538.54 201.32 537.84 202.83 537.29 204.57C536.74 206.3 536.31 208.14 535.98 210.1C535.65 212.05 535.41 214.07 535.25 216.17C535.1 218.26 534.99 220.34 534.92 222.4C534.92 223.15 534.69 223.53 534.22 223.53C533.75 223.53 533.3 223.21 532.86 222.59Z" />
		<path id="Layer" class="shp0" d="M552.15 193.48C551.77 193.63 551.39 193.67 551 193.57C550.61 193.48 550.3 193.31 550.06 193.06C549.83 192.81 549.72 192.51 549.74 192.17C549.75 191.82 550.01 191.46 550.51 191.09C551.04 190.9 551.58 190.89 552.13 191.06C552.67 191.24 553.09 191.47 553.37 191.77C553.65 192.06 553.73 192.38 553.6 192.73C553.48 193.07 552.99 193.32 552.15 193.48ZM552.71 195.02C553.31 197.06 553.78 199.32 554.14 201.82C554.5 204.32 554.78 206.82 554.99 209.32C555.19 211.82 555.33 214.21 555.41 216.49C555.49 218.78 555.56 220.68 555.62 222.21C555.62 222.84 555.44 223.21 555.08 223.31C554.72 223.42 554.26 223.43 553.7 223.34C553.29 218.78 552.95 214.19 552.67 209.58C552.39 204.97 551.89 200.39 551.17 195.82L552.71 195.02Z" />
		<path id="Layer" class="shp0" d="M549.97 239.6C549.88 239.29 549.88 239.02 549.97 238.78C550.06 238.55 550.2 238.37 550.37 238.25C550.54 238.12 550.71 238.06 550.88 238.06C551.05 238.06 551.17 238.13 551.24 238.29C552.8 239.51 554.31 240.25 555.78 240.52C557.25 240.78 558.55 240.73 559.67 240.35C560.8 239.98 561.7 239.35 562.39 238.46C563.08 237.57 563.44 236.56 563.47 235.43C563.44 234.49 563.38 233.24 563.28 231.66C563.19 230.08 563.07 228.31 562.93 226.36C562.79 224.41 562.63 222.32 562.44 220.1C562.25 217.89 562.06 215.68 561.88 213.5C561.69 211.31 561.49 209.2 561.29 207.17C561.09 205.14 560.91 203.32 560.75 201.71C560.6 200.1 560.45 198.78 560.31 197.75C560.17 196.71 560.06 196.09 560 195.87C560 195.78 560.06 195.68 560.19 195.57C560.32 195.46 560.49 195.35 560.71 195.24C560.92 195.13 561.16 195.05 561.41 195C561.66 194.96 561.91 194.96 562.16 195.03C562.41 196.59 562.67 198.48 562.96 200.7C563.24 202.92 563.5 205.3 563.75 207.85C564 210.39 564.24 213.02 564.48 215.72C564.71 218.43 564.92 221.04 565.09 223.57C565.26 226.11 565.4 228.46 565.51 230.63C565.62 232.8 565.69 234.62 565.72 236.09C565.72 237.59 565.4 238.8 564.76 239.72C564.12 240.64 563.28 241.34 562.25 241.81C561.22 242.28 560.09 242.54 558.85 242.61C557.62 242.67 556.42 242.58 555.25 242.33C554.07 242.07 553.01 241.72 552.06 241.25C551.1 240.78 550.41 240.23 549.97 239.6ZM558.97 189.26C559.31 189.2 559.64 189.24 559.95 189.4C560.27 189.56 560.52 189.78 560.7 190.06C560.89 190.34 560.98 190.65 560.98 191C560.98 191.34 560.84 191.68 560.56 192.03C559.59 192.31 558.91 192.33 558.5 192.1C558.09 191.86 557.88 191.54 557.84 191.13C557.81 190.73 557.91 190.33 558.15 189.94C558.38 189.55 558.66 189.32 558.97 189.26Z" />
		<path id="Layer" class="shp0" d="M569.82 223.81C569.82 220.68 569.74 217.74 569.58 214.97C569.43 212.2 569.27 209.47 569.11 206.77C568.96 204.07 568.8 201.31 568.65 198.5C568.49 195.68 568.41 192.68 568.41 189.5C568.54 189.06 568.73 188.79 569 188.7C569.26 188.6 569.54 188.61 569.82 188.72C570.1 188.83 570.33 189.01 570.52 189.26C570.71 189.51 570.79 189.74 570.75 189.96L572.02 210.59C572.77 209.96 573.48 209.1 574.15 208.01C574.83 206.92 575.49 205.72 576.15 204.42C576.8 203.13 577.45 201.81 578.09 200.49C578.73 199.16 579.38 197.93 580.04 196.81C580.22 196.65 580.42 196.59 580.62 196.62C580.82 196.65 581 196.74 581.16 196.9C581.32 197.06 581.43 197.25 581.49 197.49C581.55 197.72 581.54 197.93 581.44 198.12C581.44 198.49 581.31 199.01 581.04 199.67C580.78 200.32 580.44 201.06 580.04 201.87C579.63 202.68 579.17 203.54 578.65 204.45C578.14 205.35 577.62 206.24 577.11 207.12C576.59 207.99 576.11 208.82 575.65 209.6C575.2 210.38 574.82 211.05 574.5 211.62C575.07 211.96 575.83 212.41 576.8 212.95C577.77 213.5 578.82 214.08 579.97 214.69C581.11 215.3 582.25 215.92 583.41 216.56C584.57 217.2 585.62 217.8 586.57 218.34C587.53 218.89 588.32 219.34 588.94 219.7C589.57 220.06 589.89 220.29 589.93 220.38C590.05 220.54 590.1 220.72 590.07 220.92C590.04 221.12 589.95 221.31 589.81 221.48C589.67 221.65 589.47 221.79 589.22 221.88C588.97 221.98 588.69 221.99 588.38 221.93C587.13 221.49 586.08 221.05 585.24 220.62C584.39 220.18 583.64 219.74 582.96 219.31C582.29 218.87 581.66 218.43 581.07 217.99C580.47 217.56 579.8 217.1 579.05 216.63C578.3 216.17 577.4 215.69 576.36 215.2C575.31 214.72 574.02 214.21 572.49 213.68L572.49 223.66C572.49 223.88 572.38 224.07 572.16 224.23C571.94 224.38 571.69 224.48 571.41 224.53C571.13 224.58 570.84 224.55 570.54 224.44C570.25 224.33 570.01 224.12 569.82 223.81Z" />
	</g>
	<g id="Layer">
		<path id="Layer" fill-rule="evenodd" class="shp1" d="M97.41 138.26L94.01 119.66L92.21 112.26L69.01 111.86L49.01 112.46L47.41 117.66L43.81 138.26L12.01 138.26L53.61 9.26L92.61 9.26L130.41 138.26L97.41 138.26L97.41 138.26ZM73.41 38.86L71.41 38.86L56.41 87.86L71.21 88.26L86.01 87.86L73.41 38.86Z" />
		<path id="Layer" class="shp1" d="M258.61 138.26L223.41 138.26L177.61 58.46L175.61 58.46L175.41 92.86L176.81 138.26L147.01 138.26L148.81 100.26L147.21 9.26L182.41 9.26L228.21 89.06L230.21 89.06L229.21 10.46L259.21 8.66L257.41 97.46L258.61 138.26Z" />
		<path id="Layer" fill-rule="evenodd" class="shp1" d="M341.81 8.46C379.6 8.46 400.2 29.86 400.2 68.66C400.2 114.46 376.6 139.86 333.81 139.86C322.61 139.86 301.41 139.06 287.41 138.25L287.21 138.25L289.01 100.06L287.21 9.26L287.41 9.26L341.81 8.46ZM366.41 76.46C366.41 45.86 358.21 34.06 339.21 34.06C335.21 34.06 326.41 34.26 319.81 34.86L318.61 96.86L319.01 113.66C326.41 114.66 335.81 115.26 339.81 115.26C356.41 115.26 366.41 104.26 366.41 76.46Z" />
		<path id="Layer" class="shp1" d="M506.2 114.26L504.2 138.26L419.01 138.26L420.81 100.06L419.01 9.26L505.41 9.26L507.2 11.66L505.01 35.66L473.61 34.46L451.61 34.66L451.21 60.46L472.21 60.46L493.21 59.86L495.01 62.26L493.01 86.26L470.01 85.66L450.61 85.66L450.41 96.86L450.81 112.86L472.01 113.06L504.41 111.86L506.2 114.26Z" />
		<path id="Layer" fill-rule="evenodd" class="shp1" d="M628.4 130.66L628 134.26C617.6 137.66 606.8 139.66 595.8 140.46L592.6 137.86C585.41 124.46 578.41 110.86 571.81 96.86L554.81 96.86L556 138.25L523.4 138.25L525.21 100.06L523.4 9.26L577.8 9.06C605.6 9.06 621.4 22.86 621.4 48.06C621.4 64.06 612.8 78.06 598.4 87.26C607.8 101.86 617.6 116.46 628.4 130.66ZM572.8 73.26C582.6 69.66 587.2 62.66 587.2 51.06C587.2 38.46 580.8 32.86 567 32.26L556.2 32.86L555.4 72.46L572.8 73.26Z" />
	</g>
	<g id="Layer">
		<path id="Layer" class="shp0" d="M724.21 14.06L719.01 41.26L714.21 43.06C704.01 36.46 693.21 32.46 685.81 32.46C676.61 32.46 671.41 37.86 671.41 43.46C671.41 61.86 727.01 60.86 727.01 98.86C727.01 121.86 707.21 140.26 676.01 140.26C663.21 140.26 649.41 137.66 636.01 132.26L640.61 103.26L644.01 101.26C656.01 111.26 670.61 116.06 679.41 116.06C690.21 116.06 694.81 110.26 694.81 104.66C694.81 85.26 639.61 87.46 639.61 48.86C639.61 25.26 659.81 7.26 689.41 7.26C699.01 7.26 711.21 9.06 724.21 14.06Z" />
	</g>
	<path id="Layer" class="shp2" d="M599 210.7L730.81 210.7" />
	<path id="Layer" class="shp2" d="M10.81 210.7L141.21 210.7" />
</svg>